<?xml version="1.0" encoding="UTF-8"?>
<svg id="Calque_1" xmlns="http://www.w3.org/2000/svg" baseProfile="tiny" version="1.2" viewBox="0 0 108.3996342 15.1955938">
  <!-- Generator: Adobe Illustrator 30.6.0, SVG Export Plug-In . SVG Version: 2.1.4 Build 109)  -->
  <path d="M5.3914485,7.540679c-.1818369-.1536208-.3918898-.2821607-.6312039-.3856196-.238269-.1024139-.4932587-.1901972-.764969-.2612599l-1.8622605-.4608625c-.1567559-.0355313-.3041065-.0815131-.4441418-.1389903-.1389903-.0564321-.2612599-.131675-.368899-.2246835-.106594-.0930085-.1912422-.2048278-.2508095-.3375478-.0616573-.131675-.0919635-.2863408-.0919635-.4650426,0-.2852958.0543421-.5246099.1609361-.7168971s.2476744-.3479982.423241-.4650426c.1745216-.1180895.3772593-.2037827.6092581-.2570797s.4723579-.080468.7221223-.080468c.2717103,0,.5298351.0376214.7764644.1118192.2455843.0752428.4639976.186017.6521047.3323226.1891522.1463055.342773.3281424.4608625.5455107.1170444.2173682.1828819.4723579.1975125.764969h.7283926c0-.3918898-.0773329-.7357079-.2309537-1.0324991-.1525758-.2957462-.3584486-.5434206-.6144833-.7440682-.2570797-.1996026-.5570061-.3490432-.8997791-.449367-.3417279-.0992788-.7022666-.1494407-1.0805709-.1494407-.5350603,0-.9739769.0762879-1.3157048.2299087-.342773.1536208-.6123932.3406829-.8078156.5622313-.1964674.2205033-.3302325.4566823-.4012952.7064467-.0721077.2497645-.1076391.4671327-.1076391.6521047,0,.2999264.0480718.5528259.1442155.7597438.0971887.2069178.2236385.3824845.3803944.5246099.1567559.1431704.3406829.2570797.5507359.342773.211098.0856932.4263761.1567559.6479245.2142331l1.7013244.4169708c.1787018.0428466.3605387.0982337.5455107.1661613.186017.0679276.3553135.1546659.5089343.2623049.1525758.106594.2779805.238269.3741242.395025.0961436.157801.1442155.342773.1442155.5570061,0,.2779805-.0679276.5152045-.2027377.7116719-.1358551.1964674-.3051516.3563585-.5089343.4817632-.2027377.1243597-.422196.2152782-.6573299.2727553-.2361789.0564321-.4535472.0856932-.6531497.0856932-.3500883,0-.6782307-.0344863-.9844273-.1024139-.3072416-.0668825-.5726817-.1797468-.7973652-.3365027s-.4012952-.3678539-.5298351-.6312039c-.1285399-.264395-.1891522-.5925374-.1818369-.9844273H.0042695c-.0219458.4702678.0407565.8736531.1870621,1.2091108s.3542684.6092581.6259787.8234912c.2706652.2142331.5988077.3730791.9844273.476538s.8025904.1546659,1.2519574.1546659.8349866-.0407565,1.1558138-.1222696c.3208271-.0825581.5904474-.1891522.8078156-.3218722.2173682-.131675.3887547-.2790256.5141595-.4441418.1243597-.1640712.2205033-.3260523.2884309-.4859434.0679276-.1609361.1107742-.3124668.1285399-.4556373.0177657-.1421254.027171-.2560347.027171-.3417279,0-.3145569-.052252-.582087-.1557109-.8025904-.1034589-.2215484-.2455843-.4086105-.4284662-.5622313Z" fill="#212121"/>
  <rect x="7.0133499" y="3.2873679" width=".6740505" height="7.6402843" fill="#212121"/>
  <path d="M13.2511911,6.1121099c-.2215484-.26335-.4943037-.474448-.818266-.6312039-.3250073-.1567559-.6980864-.2351339-1.1181923-.2351339-.4211509,0-.7942301.078378-1.1181923.2351339-.3250073.1567559-.5977626.3678539-.819311.6312039-.2205033.264395-.3887547.5726817-.502664.9259051s-.1713865.7294376-.1713865,1.1286427.0574772.7754194.1713865,1.1286427.2821607.6625551.502664.9259051c.2215484.264395.4943037.4723579.819311.6259787.3239623.1536208.6970414.2299087,1.1181923.2299087.4201059,0,.793185-.0762879,1.1181923-.2299087.3239623-.1536208.5967176-.3615837.818266-.6259787.2215484-.26335.3887547-.5726817.502664-.9259051.1149544-.3532234.1713865-.7294376.1713865-1.1286427s-.0564321-.7754194-.1713865-1.1286427c-.1139093-.3532234-.2811156-.66151-.502664-.9259051ZM13.1278764,9.0277703c-.0815131.2821607-.2027377.5340152-.3636738.7545186-.1598911.2215484-.3615837.4002502-.6040329.5350603-.2424492.1358551-.5246099.2037827-.845437.2037827s-.6029878-.0679276-.845437-.2037827c-.2424492-.1348101-.4441418-.3135119-.6050779-.5350603-.1598911-.2205033-.2821607-.4723579-.3636738-.7545186-.0825581-.2811156-.1233147-.5685015-.1233147-.8611126s.0407565-.5789519.1233147-.8611126c.0815131-.2821607.2037827-.5329702.3636738-.7545186.1609361-.2215484.3626287-.3992051.6050779-.5350603s.5246099-.2037827.845437-.2037827.6029878.0679276.845437.2037827.4441418.3135119.6040329.5350603c.1609361.2215484.2821607.4723579.3636738.7545186.0825581.2821607.1233147.5685015.1233147.8611126s-.0407565.579997-.1233147.8611126Z" fill="#212121"/>
  <polygon points="20.0031918 10.1355122 19.982291 10.1355122 18.6331449 5.4056631 17.8734011 5.4056631 16.5253001 10.1355122 16.5043993 10.1355122 15.0915058 5.4056631 14.3746086 5.4056631 16.1511759 10.9276522 16.8889738 10.9276522 18.2381199 6.2834964 18.2590207 6.2834964 19.6186172 10.9276522 20.3564151 10.9276522 22.1329824 5.4056631 21.4160853 5.4056631 20.0031918 10.1355122" fill="#212121"/>
  <path d="M31.4108437,8.9744732c-.1274948.2967912-.2957462.554916-.502664.7764644-.2069178.2205033-.4525021.395025-.7377979.5235648-.2863408.1285399-.607168.1933323-.9635265.1933323-.5068442,0-.9415807-.0961436-1.3052544-.289476-.3636738-.1922873-.6625551-.4472769-.8935088-.764969-.2319988-.317692-.4033853-.6771856-.5141595-1.0805709s-.1661613-.8119957-.1661613-1.2258314c0-.4201059.0553871-.8308065.1661613-1.2300116.1107742-.4002502.2821607-.7586987.5141595-1.0753457.2309537-.317692.5298351-.5726817.8935088-.766014.3636738-.1922873.7984102-.2884309,1.3052544-.2884309.2779805,0,.5434206.0407565.7973652.1233147.2528996.0815131.4848984.2016926.6949513.3584486.211098.1567559.3887547.3511333.5350603.5831321s.2518545.4943037.316647.7858698h.7273475c-.0501619-.3992051-.1692964-.7524285-.3584486-1.0586251-.1891522-.3072416-.4242861-.5653664-.7064467-.7764644-.2821607-.210053-.5956726-.368899-.9415807-.475493-.3459081-.1076391-.7012216-.1609361-1.0648953-.1609361-.5988077,0-1.1255076.1086841-1.5780097.3260523-.4535472.2184133-.8297614.5110243-1.1296878.8778332-.2988813.3678539-.5235648.7900499-.6740505,1.267633-.1494407.4786281-.2246835.9812922-.2246835,1.5090371,0,.52879.0752428,1.0314541.2246835,1.5090371.1504857.4786281.3751692.898734.6740505,1.2624078.2999264.3647188.6761406.6552398,1.1296878.872608.4525021.2173682.9792021.3260523,1.5780097.3260523.449367,0,.8579775-.0710627,1.2247864-.2131881.3678539-.1431704.686591-.3459081.9583013-.6103031.2706652-.264395.4922136-.5852222.6636001-.9635265.1713865-.3772593.2811156-.8025904.3312775-1.2728582h-.7273475c-.0355313.3417279-.1180895.66151-.2466293.9572562Z" fill="#212121"/>
  <path d="M37.6392795,6.1121099c-.2215484-.26335-.4943037-.474448-.818266-.6312039-.3250073-.1567559-.6980864-.2351339-1.1181923-.2351339-.4211509,0-.7942301.078378-1.1181923.2351339-.3250073.1567559-.5977626.3678539-.819311.6312039-.2205033.264395-.3887547.5726817-.502664.9259051s-.1713865.7294376-.1713865,1.1286427.0574772.7754194.1713865,1.1286427.2821607.6625551.502664.9259051c.2215484.264395.4943037.4723579.819311.6259787.3239623.1536208.6970414.2299087,1.1181923.2299087.4201059,0,.793185-.0762879,1.1181923-.2299087.3239623-.1536208.5967176-.3615837.818266-.6259787.2215484-.26335.3887547-.5726817.502664-.9259051.1149544-.3532234.1713865-.7294376.1713865-1.1286427s-.0564321-.7754194-.1713865-1.1286427c-.1139093-.3532234-.2811156-.66151-.502664-.9259051ZM37.5159649,9.0277703c-.0815131.2821607-.2027377.5340152-.3636738.7545186-.1598911.2215484-.3615837.4002502-.6040329.5350603-.2424492.1358551-.5246099.2037827-.845437.2037827s-.6029878-.0679276-.845437-.2037827c-.2424492-.1348101-.4441418-.3135119-.6050779-.5350603-.1598911-.2205033-.2821607-.4723579-.3636738-.7545186-.0825581-.2811156-.1233147-.5685015-.1233147-.8611126s.0407565-.5789519.1233147-.8611126c.0815131-.2821607.2037827-.5329702.3636738-.7545186.1609361-.2215484.3626287-.3992051.6050779-.5350603s.5246099-.2037827.845437-.2037827.6029878.0679276.845437.2037827.4441418.3135119.6040329.5350603c.1609361.2215484.2821607.4723579.3636738.7545186.0825581.2821607.1233147.5685015.1233147.8611126s-.0407565.579997-.1233147.8611126Z" fill="#212121"/>
  <path d="M43.6001852,3.2873679c-.2717103,0-.4943037.0386665-.6688253.1170444-.1755666.078378-.3124668.1891522-.4127906.3323226-.0992788.1421254-.1672063.3135119-.2027377.5131144s-.053297.4180158-.053297.6531497v.502664h-1.9051071v-.4817632c0-.1494407.0031351-.2884309.0104504-.4169708s.0334413-.2403591.080468-.3375478c.0459817-.0961436.1191345-.1724315.2194583-.2299087.0992788-.0564321.2424492-.0856932.4274212-.0856932.078378,0,.1567559.0052252.2361789.0167206.078378.0104504.1630262.0229909.2560347.0376214v-.5779069c-.106594-.0146306-.2027377-.0250809-.2884309-.0323962s-.1787018-.0104504-.2779805-.0104504c-.2717103,0-.4943037.0386665-.6688253.1170444-.1755666.078378-.3124668.1891522-.4127906.3323226-.0992788.1421254-.1672063.3135119-.2027377.5131144s-.053297.4180158-.053297.6531497v.502664h-.9426257v.5674565h.9426257v4.9545326h.6740505v-4.9545326h1.9051071v4.9545326h.6740505v-4.9545326h1.0910213v-.5674565h-1.0910213v-.4817632c0-.1494407.0031351-.2884309.0104504-.4169708s.0334413-.2403591.080468-.3375478c.0459817-.0961436.1191345-.1724315.2194583-.2299087.0992788-.0564321.2424492-.0856932.4274212-.0856932.078378,0,.1567559.0052252.2361789.0167206.078378.0104504.1630262.0229909.2560347.0376214v-.5779069c-.106594-.0146306-.2027377-.0250809-.2884309-.0323962s-.1787018-.0104504-.2779805-.0104504Z" fill="#212121"/>
  <path d="M49.2068225,7.2094014c-.0856932-.3751692-.2267736-.7064467-.422196-.9959227-.1964674-.2884309-.4514571-.5225198-.764969-.7001765-.3145569-.1787018-.6928612-.2675301-1.134913-.2675301-.4347365,0-.8119957.0836032-1.1286427.2508095-.317692.1682514-.5768618.3887547-.7764644.6636001s-.3469531.5873122-.4441418.9363555c-.0961436.3500883-.1442155.7064467-.1442155,1.0701205,0,.3929349.0480718.764969.1442155,1.1181923.0971887.3532234.2445393.6636001.4441418.9311303s.4587724.4775831.7764644.6312039c.316647.1536208.6939063.2299087,1.1286427.2299087.6991315,0,1.2394169-.1703414,1.6208564-.5131144.3824845-.342773.6437444-.8276713.7869148-1.4557401h-.6740505c-.106594.4284662-.2999264.7701942-.5779069,1.0272739s-.6636001.3856196-1.1558138.3856196c-.3208271,0-.5956726-.0679276-.8234912-.2037827-.2288637-.1348101-.4180158-.3061966-.5674565-.5131144s-.2591698-.4410067-.3260523-.7012216c-.0679276-.2602149-.1024139-.5120694-.1024139-.7545186h4.2491309c.0135855-.3845746-.0219458-.764969-.1076391-1.1390931ZM45.0653307,7.7810381c.0282161-.2487194.0877833-.4932587.1766117-.7325727.0898734-.2393141.2090079-.449367.3584486-.6312039.1504857-.1818369.3323226-.3281424.5465557-.4389166.2131881-.1107742.4598174-.1661613.7377979-.1661613.2706652,0,.5141595.0553871.7273475.1661613.2142331.1107742.39607.2570797.5465557.4389166.1494407.1818369.2654401.3908448.3469531.6259787.0825581.2351339.1274948.4817632.1337651.7377979h-3.5740353Z" fill="#212121"/>
  <path d="M54.7612078,7.2094014c-.0856932-.3751692-.2267736-.7064467-.422196-.9959227-.1964674-.2884309-.4514571-.5225198-.764969-.7001765-.3145569-.1787018-.6928612-.2675301-1.134913-.2675301-.4347365,0-.8119957.0836032-1.1286427.2508095-.317692.1682514-.5768618.3887547-.7764644.6636001s-.3469531.5873122-.4441418.9363555c-.0961436.3500883-.1442155.7064467-.1442155,1.0701205,0,.3929349.0480718.764969.1442155,1.1181923.0971887.3532234.2445393.6636001.4441418.9311303s.4587724.4775831.7764644.6312039c.316647.1536208.6939063.2299087,1.1286427.2299087.6991315,0,1.2394169-.1703414,1.6208564-.5131144.3824845-.342773.6437444-.8276713.7869148-1.4557401h-.6740505c-.106594.4284662-.2999264.7701942-.5779069,1.0272739s-.6636001.3856196-1.1558138.3856196c-.3208271,0-.5956726-.0679276-.8234912-.2037827-.2288637-.1348101-.4180158-.3061966-.5674565-.5131144s-.2591698-.4410067-.3260523-.7012216c-.0679276-.2602149-.1024139-.5120694-.1024139-.7545186h4.2491309c.0135855-.3845746-.0219458-.764969-.1076391-1.1390931ZM50.619716,7.7810381c.0282161-.2487194.0877833-.4932587.1766117-.7325727.0898734-.2393141.2090079-.449367.3584486-.6312039.1504857-.1818369.3323226-.3281424.5465557-.4389166.2131881-.1107742.4598174-.1661613.7377979-.1661613.2706652,0,.5141595.0553871.7273475.1661613.2142331.1107742.39607.2570797.5465557.4389166.1494407.1818369.2654401.3908448.3469531.6259787.0825581.2351339.1274948.4817632.1337651.7377979h-3.5740353Z" fill="#212121"/>
  <path d="M72.8100862,7.540679c-.1818369-.1536208-.3918898-.2821607-.6312039-.3856196-.238269-.1024139-.4932587-.1901972-.764969-.2612599l-1.8622605-.4608625c-.1567559-.0355313-.3041065-.0815131-.4441418-.1389903-.1389903-.0564321-.2612599-.131675-.368899-.2246835-.106594-.0930085-.1912422-.2048278-.2508095-.3375478-.0616573-.131675-.0919635-.2863408-.0919635-.4650426,0-.2852958.0543421-.5246099.1609361-.7168971s.2476744-.3479982.423241-.4650426c.1745216-.1180895.3772593-.2037827.6092581-.2570797s.4723579-.080468.7221223-.080468c.2717103,0,.5298351.0376214.7764644.1118192.2455843.0752428.4639976.186017.6521047.3323226.1891522.1463055.342773.3281424.4608625.5455107.1170444.2173682.1828819.4723579.1975125.764969h.7283926c0-.3918898-.0773329-.7357079-.2309537-1.0324991-.1525758-.2957462-.3584486-.5434206-.6144833-.7440682-.2570797-.1996026-.5570061-.3490432-.8997791-.449367-.3417279-.0992788-.7022666-.1494407-1.0805709-.1494407-.5350603,0-.9739769.0762879-1.3157048.2299087-.342773.1536208-.6123932.3406829-.8078156.5622313-.1964674.2205033-.3302325.4566823-.4012952.7064467-.0721077.2497645-.1076391.4671327-.1076391.6521047,0,.2999264.0480718.5528259.1442155.7597438.0971887.2069178.2236385.3824845.3803944.5246099.1567559.1431704.3406829.2570797.5507359.342773.211098.0856932.4263761.1567559.6479245.2142331l1.7013244.4169708c.1787018.0428466.3605387.0982337.5455107.1661613.186017.0679276.3553135.1546659.5089343.2623049.1525758.106594.2779805.238269.3741242.395025.0961436.157801.1442155.342773.1442155.5570061,0,.2779805-.0679276.5152045-.2027377.7116719-.1358551.1964674-.3051516.3563585-.5089343.4817632-.2027377.1243597-.422196.2152782-.6573299.2727553-.2361789.0564321-.4535472.0856932-.6531497.0856932-.3500883,0-.6782307-.0344863-.9844273-.1024139-.3072416-.0668825-.5726817-.1797468-.7973652-.3365027s-.4012952-.3678539-.5298351-.6312039c-.1285399-.264395-.1891522-.5925374-.1818369-.9844273h-.7273475c-.0219458.4702678.0407565.8736531.1870621,1.2091108s.3542684.6092581.6259787.8234912c.2706652.2142331.5988077.3730791.9844273.476538s.8025904.1546659,1.2519574.1546659.8349866-.0407565,1.1558138-.1222696c.3208271-.0825581.5904474-.1891522.8078156-.3218722.2173682-.131675.3887547-.2790256.5141595-.4441418.1243597-.1640712.2205033-.3260523.2884309-.4859434.0679276-.1609361.1107742-.3124668.1285399-.4556373.0177657-.1421254.027171-.2560347.027171-.3417279,0-.3145569-.052252-.582087-.1557109-.8025904-.1034589-.2215484-.2455843-.4086105-.4284662-.5622313Z" fill="#212121"/>
  <rect x="74.4319877" y="3.2873679" width=".6740505" height="7.6402843" fill="#212121"/>
  <path d="M80.6698288,6.1121099c-.2215484-.26335-.4943037-.474448-.818266-.6312039-.3250073-.1567559-.6980864-.2351339-1.1181923-.2351339-.4211509,0-.7942301.078378-1.1181923.2351339-.3250073.1567559-.5977626.3678539-.819311.6312039-.2205033.264395-.3887547.5726817-.502664.9259051s-.1713865.7294376-.1713865,1.1286427.0574772.7754194.1713865,1.1286427.2821607.6625551.502664.9259051c.2215484.264395.4943037.4723579.819311.6259787.3239623.1536208.6970414.2299087,1.1181923.2299087.4201059,0,.793185-.0762879,1.1181923-.2299087.3239623-.1536208.5967176-.3615837.818266-.6259787.2215484-.26335.3887547-.5726817.502664-.9259051.1149544-.3532234.1713865-.7294376.1713865-1.1286427s-.0564321-.7754194-.1713865-1.1286427c-.1139093-.3532234-.2811156-.66151-.502664-.9259051ZM80.5465142,9.0277703c-.0815131.2821607-.2027377.5340152-.3636738.7545186-.1598911.2215484-.3615837.4002502-.6040329.5350603-.2424492.1358551-.5246099.2037827-.845437.2037827s-.6029878-.0679276-.845437-.2037827c-.2424492-.1348101-.4441418-.3135119-.6050779-.5350603-.1598911-.2205033-.2821607-.4723579-.3636738-.7545186-.0825581-.2811156-.1233147-.5685015-.1233147-.8611126s.0407565-.5789519.1233147-.8611126c.0815131-.2821607.2037827-.5329702.3636738-.7545186.1609361-.2215484.3626287-.3992051.6050779-.5350603s.5246099-.2037827.845437-.2037827.6029878.0679276.845437.2037827.4441418.3135119.6040329.5350603c.1609361.2215484.2821607.4723579.3636738.7545186.0825581.2821607.1233147.5685015.1233147.8611126s-.0407565.579997-.1233147.8611126Z" fill="#212121"/>
  <polygon points="87.4218295 10.1355122 87.4009287 10.1355122 86.0517826 5.4056631 85.2920389 5.4056631 83.9439378 10.1355122 83.923037 10.1355122 82.5101435 5.4056631 81.7932464 5.4056631 83.5698136 10.9276522 84.3076116 10.9276522 85.6567577 6.2834964 85.6776585 6.2834964 87.0372549 10.9276522 87.7750529 10.9276522 89.5516201 5.4056631 88.834723 5.4056631 87.4218295 10.1355122" fill="#212121"/>
  <polygon points="94.1111278 3.2873679 93.3827352 3.2873679 93.3827352 10.9276522 98.3916099 10.9276522 98.3916099 10.3068987 94.1111278 10.3068987 94.1111278 3.2873679" fill="#212121"/>
  <rect x="99.0123634" y="5.4056631" width=".6740505" height="5.5219891" fill="#212121"/>
  <rect x="99.0123634" y="3.2873679" width=".6740505" height="1.0805709" fill="#212121"/>
  <path d="M102.6825423,3.2873679c-.2717103,0-.4943037.0386665-.6688253.1170444-.1755666.078378-.3124668.1891522-.4127906.3323226-.0992788.1421254-.1672063.3135119-.2027377.5131144s-.053297.4180158-.053297.6531497v.502664h-.9426257v.5674565h.9426257v4.9545326h.6740505v-4.9545326h1.0910213v-.5674565h-1.0910213v-.4817632c0-.1494407.0031351-.2884309.0104504-.4169708s.0334413-.2403591.080468-.3375478c.0459817-.0961436.1191345-.1724315.2194583-.2299087.0992788-.0564321.2424492-.0856932.4274212-.0856932.078378,0,.1567559.0052252.2361789.0167206.078378.0104504.1630262.0229909.2560347.0376214v-.5779069c-.106594-.0146306-.2027377-.0250809-.2884309-.0323962s-.1787018-.0104504-.2779805-.0104504Z" fill="#212121"/>
  <path d="M107.1229155,10.1355122c-.2779805.2570797-.6636001.3856196-1.1558138.3856196-.3208271,0-.5956726-.0679276-.8234912-.2037827-.2288637-.1348101-.4180158-.3061966-.5674565-.5131144s-.2591698-.4410067-.3260523-.7012216c-.0679276-.2602149-.1024139-.5120694-.1024139-.7545186h4.2491309c.0135855-.3845746-.0219458-.764969-.1076391-1.1390931-.0856932-.3751692-.2267736-.7064467-.422196-.9959227-.1964674-.2884309-.4514571-.5225198-.764969-.7001765-.3145569-.1787018-.6928612-.2675301-1.134913-.2675301-.4347365,0-.8119957.0836032-1.1286427.2508095-.317692.1682514-.5768618.3887547-.7764644.6636001s-.3469531.5873122-.4441418.9363555c-.0961436.3500883-.1442155.7064467-.1442155,1.0701205,0,.3929349.0480718.764969.1442155,1.1181923.0971887.3532234.2445393.6636001.4441418.9311303s.4587724.4775831.7764644.6312039c.316647.1536208.6939063.2299087,1.1286427.2299087.6991315,0,1.2394169-.1703414,1.6208564-.5131144.3824845-.342773.6437444-.8276713.7869148-1.4557401h-.6740505c-.106594.4284662-.2999264.7701942-.5779069,1.0272739ZM104.3242995,7.0484653c.0898734-.2393141.2090079-.449367.3584486-.6312039.1504857-.1818369.3323226-.3281424.5465557-.4389166.2131881-.1107742.4598174-.1661613.7377979-.1661613.2706652,0,.5141595.0553871.7273475.1661613.2142331.1107742.39607.2570797.5465557.4389166.1494407.1818369.2654401.3908448.3469531.6259787.0825581.2351339.1274948.4817632.1337651.7377979h-3.5740353c.0282161-.2487194.0877833-.4932587.1766117-.7325727Z" fill="#212121"/>
  <path d="M61.5925662,3.4735156l-.1763504-3.4735156-.1763504,3.4735156c-.1019567,2.0084354-1.538037,3.6989176-3.5034952,4.124314,1.9654582.4253311,3.4015385,2.1158786,3.5034952,4.1242487l.1763504,3.4735156.1763504-3.4735156c.1019567-2.0083701,1.538037-3.6989176,3.5034952-4.1242487-1.9654582-.4253964-3.4015385-2.1158786-3.5034952-4.124314Z" fill="#212121"/>
</svg>