<svg xmlns="http://www.w3.org/2000/svg" viewBox="0 0 28.5 28.5" fill="#212121" role="img" aria-label="Yunma">
<g transform="translate(-183.75 -266.95)"><path d="M207.3,274.1l-1.6-.6-.6-1.6c-2.4-6.6-11.7-6.6-14.2,0l-.6,1.6-1.6.6c-6.6,2.4-6.6,11.7,0,14.2l1.6.6.6,1.6c2.4,6.6,11.7,6.6,14.2,0l.6-1.6,1.6-.6c6.6-2.4,6.6-11.7,0-14.2ZM190.3,277.4h6.7v1.4h-6.7v-1.4ZM197.8,281.2h-3.9c-.7,1-1.3,1.7-1.7,2.1h2.9c-.3-.4-.6-.8-.9-1.2l1.1-.7c.9,1,1.7,1.9,2.4,2.8l-1.3.8s0,0-.1-.2c0,0-.2-.3-.3-.5-.4,0-1.1,0-2.1,0-.8,0-1.5,0-1.8,0-.4,0-.9,0-1.4.2h-.1l-.7-1.3c.4-.3.8-.6,1.1-.9.3-.4.7-.8,1-1.4h-2.3v-1.4h8.1v1.4h0ZM198.4,282.1h5.8v1.2h-5.8v-1.2ZM206.1,283.4c0,1.2-.5,1.7-1.8,1.7h-2.2c0-.4-.2-.8-.3-1.3h1.9c.6,0,.9-.2.9-.7v-1.6h-5.5l.5-2.6h1.4l-.3,1.4h2.6l.3-1.7h-5v-1.3h6.6l-.5,3h1.3c0,1.2,0,2.3-.1,3.1h.2Z"></path></g>
</svg>
